<?xml version="1.0" encoding="UTF-8" standalone="no"?>
<svg
   xmlns:dc="http://purl.org/dc/elements/1.1/"
   xmlns:cc="http://creativecommons.org/ns#"
   xmlns:rdf="http://www.w3.org/1999/02/22-rdf-syntax-ns#"
   xmlns:svg="http://www.w3.org/2000/svg"
   xmlns="http://www.w3.org/2000/svg"
   viewBox="0 0 677.33331 512"
   height="512"
   width="677.33331"
   xml:space="preserve"
   id="svg2"
   version="1.1"><metadata
     id="metadata8"><rdf:RDF><cc:Work
         rdf:about=""><dc:format>image/svg+xml</dc:format><dc:type
           rdf:resource="http://purl.org/dc/dcmitype/StillImage" /></cc:Work></rdf:RDF></metadata><defs
     id="defs6"><clipPath
       id="clipPath18"
       clipPathUnits="userSpaceOnUse"><path
         id="path16"
         d="M 0,384 H 508 V 0 H 0 Z" /></clipPath></defs><g
     transform="matrix(1.3333333,0,0,-1.3333333,0,512)"
     id="g10"><g
       id="g12"><g
         clip-path="url(#clipPath18)"
         id="g14"><g
           transform="translate(107.79,361.2202)"
           id="g20"><path
             id="path22"
             style="fill:#000000;fill-opacity:1;fill-rule:nonzero;stroke:none"
             d="m 0,0 c 3.11,1.49 6.5,-0.98 9.62,0.51 -0.54,-2.44 -1.03,-4.9 -1.66,-7.32 -0.88,2.07 -0.71,5.67 -3.7,5.89 -2.49,0.69 -5.03,-1.75 -4.02,-4.24 1.51,-2.95 4.63,-4.7 6.24,-7.61 1.55,-3.28 -0.15,-7.8 -3.74,-8.84 -2.62,-0.93 -5.32,0.14 -7.87,0.77 -0.44,-0.4 -1.33,-1.2 -1.78,-1.6 0.43,2.95 0.82,5.91 1.44,8.83 0.83,-2.36 0.96,-5.68 3.74,-6.67 3.07,-1.36 6.6,1.94 5.44,5.07 -1.54,3.11 -4.71,5 -6.37,8.04 C -3.82,-4.58 -2.72,-1.1 0,0" /></g><g
           transform="translate(122.98,348.52)"
           id="g24"><path
             id="path26"
             style="fill:#000000;fill-opacity:1;fill-rule:nonzero;stroke:none"
             d="M 0,0 C 1.98,-0.01 3.97,-0.03 5.96,-0.05 5.54,2.57 5.12,5.2 4.71,7.82 3.09,5.25 1.55,2.62 0,0 M -8.1,-8.74 C -1.6,-2.29 1.12,6.89 6.89,13.91 8.39,7.02 9,-0.04 10.63,-6.9 l 2.06,-1.03 C 10.04,-9.2 7.03,-8.7 4.2,-8.75 l 2.6,1.84 c 0.01,1.89 -0.34,3.77 -0.56,5.65 -2.33,-0.01 -4.66,-0.01 -6.98,-0.03 -0.93,-1.86 -1.86,-3.72 -2.78,-5.58 0.65,-0.46 1.94,-1.36 2.59,-1.82 -2.39,-0.08 -4.78,-0.08 -7.17,-0.05" /></g><g
           transform="translate(140.6499,361.1899)"
           id="g28"><path
             id="path30"
             style="fill:#000000;fill-opacity:1;fill-rule:nonzero;stroke:none"
             d="M 0,0 C 2.87,0.05 5.74,0.04 8.61,0.04 7.55,-1.03 6.12,-1.92 5.86,-3.52 4.3,-8.89 2.84,-14.29 1.39,-19.68 c 0.79,-0.41 2.37,-1.22 3.15,-1.63 -2.94,-0.15 -5.9,-0.14 -8.84,-0.15 1.36,1.52 2.78,3.05 3.08,5.16 1.16,4.92 3.12,9.69 3.74,14.7 C 1.89,-1.2 0.63,-0.4 0,0" /></g><g
           transform="translate(149.27,346.9302)"
           id="g32"><path
             id="path34"
             style="fill:#000000;fill-opacity:1;fill-rule:nonzero;stroke:none"
             d="m 0,0 c -0.58,6.85 4.76,13.65 11.57,14.64 2.73,0.5 5.41,-0.46 8.03,-1.07 0.58,0.37 1.73,1.1 2.31,1.47 C 21.36,12.56 20.75,10.09 20.1,7.64 19,10.06 17.86,13.18 14.7,13.29 7.27,14.14 3.19,5.31 4.01,-1.02 4.22,-5.56 10.48,-7.86 13.8,-5 c 1.33,2.11 1.54,4.7 2.11,7.08 -1.13,0.43 -2.25,0.85 -3.35,1.33 3.42,0.24 6.85,0.2 10.28,0.07 C 21.76,2.98 20.66,2.49 19.57,2 18.8,-0.63 18.1,-3.28 17.37,-5.92 14.04,-7.26 10.37,-8.27 6.78,-7.39 3.25,-6.72 0.3,-3.6 0,0" /></g><g
           transform="translate(184.2402,359.7598)"
           id="g36"><path
             id="path38"
             style="fill:#000000;fill-opacity:1;fill-rule:nonzero;stroke:none"
             d="m 0,0 c -3.33,-1.69 -4.99,-5.33 -6.18,-8.68 -0.96,-3.05 -1.76,-6.84 0.46,-9.54 3.43,-2.58 7.65,0.6 9.32,3.75 1.96,3.73 3.75,8.13 2.72,12.38 C 5.65,0.62 2.17,1.19 0,0 m 0.24,1.61 c 3.69,1.16 8.51,-0.45 9.69,-4.41 2.49,-8.53 -5.47,-18.28 -14.31,-17.69 -3.43,0.23 -6.38,3.32 -6.38,6.77 -0.81,6.9 4.64,13.35 11,15.33" /></g><g
           transform="translate(198.5801,361.1602)"
           id="g40"><path
             id="path42"
             style="fill:#000000;fill-opacity:1;fill-rule:nonzero;stroke:none"
             d="m 0,0 c 1.9,0.08 3.8,0.09 5.7,0.13 2.24,-5.17 4.35,-10.4 6.6,-15.57 1.32,4.48 2.73,8.94 3.76,13.49 -0.69,0.5 -2.07,1.5 -2.76,2 2.42,0.01 4.85,0.04 7.28,0.04 -1.02,-1.06 -2.39,-1.93 -2.8,-3.43 -2.05,-6.37 -3.64,-12.89 -5.73,-19.25 -2.96,5.95 -5.28,12.19 -7.96,18.27 -1.3,-4.98 -2.82,-9.91 -4,-14.92 0.66,-0.54 1.99,-1.61 2.66,-2.15 -2.47,-0.03 -4.93,-0.02 -7.39,0.02 1.29,1.14 2.87,2.18 3.25,3.98 1.56,5.09 2.92,10.24 4.41,15.35 C 2.26,-1.53 0.75,-0.51 0,0" /></g><g
           transform="translate(141.5601,327.2998)"
           id="g44"><path
             id="path46"
             style="fill:#000000;fill-opacity:1;fill-rule:nonzero;stroke:none"
             d="m 0,0 c 2.27,0.48 4.57,-0.19 6.8,-0.57 0.7,0.33 1.41,0.66 2.11,0.98 -0.46,-2.43 -0.88,-4.87 -1.44,-7.28 -0.89,2.35 -1.89,5.7 -5.01,5.6 -5.31,0.13 -8.48,-5.45 -9.25,-10.07 -0.8,-3.31 0.11,-8.41 4.19,-8.9 3.57,-0.6 6.18,2.41 9.07,3.94 -1.54,-2.42 -3.64,-4.68 -6.53,-5.4 -3.96,-1.32 -8.79,0.81 -10.13,4.84 C -12.55,-9.71 -7.28,-1.39 0,0" /></g><g
           transform="translate(206.1099,325.9302)"
           id="g48"><path
             id="path50"
             style="fill:#000000;fill-opacity:1;fill-rule:nonzero;stroke:none"
             d="m 0,0 c -3.37,-1.12 -5.14,-4.58 -6.33,-7.69 -1.07,-3.16 -2.13,-6.87 -0.47,-10.02 0.85,-1.69 3.03,-1.69 4.63,-1.34 3.49,1.47 5.3,5.15 6.41,8.55 0.74,2.76 1.79,5.78 0.51,8.55 C 4.13,-0.09 1.74,0.79 0,0 M -0.52,1.29 C 2.91,2.27 7.21,0.63 8.35,-2.93 10.27,-8.96 6.76,-15.42 1.8,-18.82 c -2.93,-1.93 -7.27,-2.83 -10.21,-0.46 -3.17,2.33 -3.14,6.88 -2.27,10.33 1.58,4.67 5.41,8.77 10.16,10.24" /></g><g
           transform="translate(275.0195,326.3398)"
           id="g52"><path
             id="path54"
             style="fill:#000000;fill-opacity:1;fill-rule:nonzero;stroke:none"
             d="M 0,0 C 0.521,0.37 1.561,1.11 2.08,1.48 1.5,-0.98 0.931,-3.44 0.33,-5.89 -0.75,-3.85 -1.3,-0.94 -4,-0.53 c -5.899,1.6 -9.89,-4.68 -10.71,-9.7 -0.869,-3.26 -0.17,-8.51 4.011,-8.86 0.54,-0.5 1.639,-1.51 2.179,-2.01 -3.719,-0.4 -7.75,1.36 -9.36,4.84 -2.729,7.12 2.49,15.87 9.931,17.21 C -5.27,1.59 -2.619,0.48 0,0" /></g><g
           transform="translate(95.4702,326.9702)"
           id="g56"><path
             id="path58"
             style="fill:#000000;fill-opacity:1;fill-rule:nonzero;stroke:none"
             d="m 0,0 c 5.61,0.05 11.21,0.03 16.82,0.02 -0.57,-2.11 -1.11,-4.23 -1.73,-6.33 -0.25,1.06 -0.74,3.2 -0.99,4.27 -1.23,0.6 -2.61,0.76 -3.92,1.08 -1.74,-6.29 -3.64,-12.55 -4.9,-18.95 0.96,-0.22 2.87,-0.65 3.83,-0.87 -3.54,-0.69 -7.16,-0.46 -10.74,-0.32 1.4,0.9 3.61,1.3 3.85,3.28 1.6,5.54 2.95,11.15 4.44,16.72 C 5.07,-1.45 3.34,-1.36 1.87,-2.11 0.69,-3.25 -0.3,-4.56 -1.4,-5.78 -0.96,-3.84 -0.47,-1.92 0,0" /></g><g
           transform="translate(113.4302,326.9399)"
           id="g60"><path
             id="path62"
             style="fill:#000000;fill-opacity:1;fill-rule:nonzero;stroke:none"
             d="M 0,0 C 5.46,0.06 10.92,0.11 16.38,0.02 15.87,-1.93 15.45,-3.9 15.01,-5.86 14.14,-4.69 14.8,-2.19 13.1,-1.64 11.09,-1.09 8.98,-1.22 6.92,-1.17 6.01,-3.84 5.28,-6.58 4.54,-9.3 c 3.23,-0.55 5.71,1.06 7.33,3.72 -0.69,-3.07 -1.48,-6.13 -2.69,-9.04 -0.11,0.96 -0.33,2.89 -0.44,3.85 -1.53,0.05 -3.05,0.09 -4.57,0.12 -0.75,-2.93 -1.75,-5.81 -2.1,-8.83 2.72,-0.34 5.68,-0.47 8.19,0.83 1.45,1.11 2.71,2.44 4.09,3.64 -0.63,-2.08 -1.34,-4.12 -2.04,-6.17 -5.54,0.03 -11.08,-0.14 -16.61,0.12 0.68,0.42 2.03,1.26 2.7,1.68 1.51,5.96 3.8,11.8 4.46,17.91 C 2.15,-1.1 0.71,-0.36 0,0" /></g><g
           transform="translate(153.2002,326.9399)"
           id="g64"><path
             id="path66"
             style="fill:#000000;fill-opacity:1;fill-rule:nonzero;stroke:none"
             d="m 0,0 c 3.28,0.05 6.57,0.06 9.86,0.07 -4.45,-0.85 -4.2,-5.64 -5.33,-9 2.84,-0.01 5.67,-0.01 8.51,-0.01 0.61,2.43 1.53,4.81 1.72,7.32 -0.61,0.41 -1.84,1.24 -2.45,1.65 2.89,0.05 5.78,0.01 8.67,0.07 -1.11,-0.9 -2.75,-1.49 -2.96,-3.09 -1.55,-5.52 -2.99,-11.06 -4.38,-16.61 0.85,-0.35 2.57,-1.05 3.42,-1.39 -3.33,-0.27 -6.68,-0.25 -10.01,-0.09 4.53,1.43 4.15,6.7 5.51,10.39 -2.84,0 -5.68,0 -8.51,-0.01 -0.8,-2.95 -1.58,-5.9 -2.21,-8.9 0.73,-0.32 2.2,-0.97 2.93,-1.29 -2.9,-0.35 -5.84,-0.34 -8.76,-0.28 1.26,1.14 2.79,2.2 2.99,4.04 1.22,5.25 3.23,10.34 3.84,15.7 C 2.13,-1.07 0.71,-0.35 0,0" /></g><g
           transform="translate(175.3501,327.0098)"
           id="g68"><path
             id="path70"
             style="fill:#000000;fill-opacity:1;fill-rule:nonzero;stroke:none"
             d="m 0,0 c 1.89,0 3.8,-0.01 5.7,-0.02 2.06,-5.09 4.02,-10.22 6.19,-15.27 1.16,4.53 2.69,8.99 3.45,13.6 -0.67,0.41 -2.02,1.24 -2.69,1.65 2.45,-0.01 4.89,0.02 7.34,0.06 -1.01,-0.94 -2.55,-1.54 -2.87,-3.02 -2.02,-6.42 -3.45,-13 -5.55,-19.4 -2.75,5.87 -4.88,12 -7.46,17.94 -1.18,-4.85 -2.73,-9.61 -3.66,-14.52 0.66,-0.55 1.99,-1.65 2.65,-2.2 -2.45,-0.04 -4.91,-0.07 -7.36,-0.06 1.37,1.04 2.89,2.16 3.19,3.99 1.38,5.07 2.95,10.1 4.04,15.24 C 2.01,-1.29 1.02,-0.62 0,0" /></g><g
           transform="translate(218.6099,326.9502)"
           id="g72"><path
             id="path74"
             style="fill:#000000;fill-opacity:1;fill-rule:nonzero;stroke:none"
             d="M 0,0 C 3.28,0.01 6.55,0.07 9.83,0.06 8.58,-0.88 6.54,-1.21 6.25,-3.01 4.65,-8.42 3.29,-13.9 1.94,-19.37 c 2.75,-0.35 5.75,-0.71 8.32,0.6 1.58,1.26 2.7,2.98 4.14,4.39 -0.64,-2.29 -1.36,-4.55 -2.06,-6.82 -5.42,0.02 -10.84,-0.05 -16.27,0.05 0.62,0.59 1.86,1.76 2.48,2.34 1.66,5.58 3.17,11.22 4.49,16.89 C 2.28,-1.44 0.76,-0.48 0,0" /></g><g
           transform="translate(245.23,325.77)"
           id="g76"><path
             id="path78"
             style="fill:#000000;fill-opacity:1;fill-rule:nonzero;stroke:none"
             d="m 0,0 c -3.75,-1.67 -5.37,-5.87 -6.5,-9.52 -0.86,-3.06 -1.48,-7.12 1.41,-9.32 3.31,-1.1 6.41,1.32 7.87,4.12 C 4.69,-11.13 6.17,-7 5.64,-2.88 5.37,-0.25 2.28,1.16 0,0 m -1.11,1.12 c 3.67,1.6 8.59,0.03 9.93,-3.91 2.54,-8.31 -5.1,-18.74 -14.01,-17.58 -6.04,1.13 -6.77,9.1 -4.19,13.63 1.76,3.44 4.65,6.42 8.27,7.86" /></g><g
           transform="translate(279.7002,327)"
           id="g80"><path
             id="path82"
             style="fill:#000000;fill-opacity:1;fill-rule:nonzero;stroke:none"
             d="M 0,0 C 3.22,0.02 6.43,0.01 9.64,-0.17 8.47,-0.58 7.3,-0.97 6.12,-1.35 c 0.72,-2.73 1.569,-5.43 2.43,-8.12 1.96,2.61 3.82,5.29 5.61,8.02 -0.7,0.32 -2.1,0.94 -2.801,1.25 2.83,0.19 5.681,0.25 8.531,0.15 C 18.52,-0.85 16.7,-1.01 15.72,-2.37 11.51,-7.49 7.56,-13.09 6.859,-19.89 7.87,-20.12 9.88,-20.58 10.89,-20.81 7,-21.54 3.02,-21.28 -0.9,-21.08 c 1.23,0.51 2.46,1.06 3.67,1.65 1.44,3.53 3.41,7.56 1.76,11.35 C 3.479,-5.14 3.35,-1.34 0,0" /></g><g
           transform="translate(268.6504,316.1802)"
           id="g84"><path
             id="path86"
             style="fill:#000000;fill-opacity:1;fill-rule:nonzero;stroke:none"
             d="M 0,0 C 2.93,0.07 5.85,0.05 8.79,0.12 4.989,-1.39 5.25,-5.84 4.149,-9.12 2.689,-9.69 1.21,-10.24 -0.25,-10.79 c -0.801,0.51 -1.591,1.02 -2.381,1.53 4.61,-0.69 4.691,4.79 5.24,7.84 C 1.96,-1.06 0.649,-0.35 0,0" /></g><g
           transform="translate(87.6699,295.5298)"
           id="g88"><path
             id="path90"
             style="fill:#000000;fill-opacity:1;fill-rule:nonzero;stroke:none"
             d="M 0,0 C 3.25,-0.03 6.5,-0.01 9.75,-0.07 8.43,-1.14 6.39,-1.66 6.14,-3.6 c -1.48,-4.6 -2.65,-9.29 -3.72,-14 1.66,-4.34 8,-3.97 9.91,-0.04 2.33,5.06 3.41,10.63 4.67,16.03 -0.81,0.34 -2.41,1.01 -3.22,1.34 2.6,0.24 5.21,0.26 7.81,0.3 -5.31,-4.61 -4.4,-12.62 -7.71,-18.45 -2.59,-5.24 -11.67,-5.45 -14.21,-0.08 -0.61,5.67 2.26,10.92 3.27,16.38 C 2.02,-1.33 0.97,-0.71 0,0" /></g><g
           transform="translate(110.8799,295.54)"
           id="g92"><path
             id="path94"
             style="fill:#000000;fill-opacity:1;fill-rule:nonzero;stroke:none"
             d="m 0,0 c 1.94,-0.03 3.88,-0.03 5.82,-0.03 2.27,-5.28 4.37,-10.65 6.68,-15.92 1.2,4.69 2.66,9.32 3.71,14.05 -0.88,0.59 -1.76,1.19 -2.62,1.8 2.45,0.07 4.9,0.06 7.36,0.09 -1.06,-1.02 -2.56,-1.78 -3,-3.28 -2.07,-6.52 -3.61,-13.21 -5.82,-19.7 -2.87,6.02 -5.28,12.25 -7.83,18.41 -1.35,-5.21 -2.94,-10.36 -4.05,-15.63 0.76,-0.36 2.28,-1.1 3.04,-1.46 -2.46,-0.11 -4.91,-0.12 -7.36,-0.14 3.03,2.09 3.41,5.91 4.39,9.16 0.87,3.43 2.06,6.79 2.77,10.26 C 2.14,-1.49 1.06,-0.76 0,0" /></g><g
           transform="translate(133.6802,295.52)"
           id="g96"><path
             id="path98"
             style="fill:#000000;fill-opacity:1;fill-rule:nonzero;stroke:none"
             d="M 0,0 C 3.04,-0.01 6.09,0.02 9.13,-0.18 8.45,-0.59 7.09,-1.4 6.42,-1.81 4.61,-7.86 2.94,-13.96 1.39,-20.08 c 1.01,-0.53 2.02,-1.06 3.03,-1.59 -3.08,-0.13 -6.16,-0.11 -9.23,-0.04 1.06,0.94 2.78,1.49 2.97,3.14 1.6,5.39 3.09,10.83 4.49,16.28 C 1.82,-1.46 0.88,-0.77 0,0" /></g><g
           transform="translate(142.8198,295.52)"
           id="g100"><path
             id="path102"
             style="fill:#000000;fill-opacity:1;fill-rule:nonzero;stroke:none"
             d="M 0,0 C 2.7,-0.02 5.4,-0.02 8.11,0.01 8.1,-0.17 8.09,-0.53 8.09,-0.71 7.54,-0.93 6.45,-1.37 5.9,-1.59 c 0.23,-5.14 1.34,-10.19 1.96,-15.29 2.97,4.91 5.98,9.81 8.46,14.99 -0.91,0.6 -1.82,1.2 -2.73,1.78 2.28,0.08 4.56,0.11 6.85,0.13 C 14.87,-7.18 11.01,-15.53 5.84,-23.02 4.28,-16.53 3.69,-9.87 2.42,-3.33 2.25,-1.87 0.83,-1.08 0,0" /></g><g
           transform="translate(164.7402,295.5601)"
           id="g104"><path
             id="path106"
             style="fill:#000000;fill-opacity:1;fill-rule:nonzero;stroke:none"
             d="m 0,0 c 5.6,-0.11 11.21,-0.04 16.81,-0.05 -0.45,-2.04 -0.88,-4.08 -1.46,-6.08 -0.8,1.22 -0.2,3.89 -2.07,4.24 -2.13,0.53 -4.38,0.46 -6.54,0.13 -1.01,-2.66 -1.65,-5.44 -2.39,-8.18 3.29,-0.24 5.91,1.11 7.77,3.73 -0.76,-2.79 -1.62,-5.55 -2.37,-8.35 -0.22,0.04 -0.66,0.13 -0.88,0.17 0.03,0.75 0.09,2.26 0.12,3.01 -1.66,0.17 -3.32,0.32 -4.98,0.43 -0.86,-3.06 -1.73,-6.13 -2.37,-9.25 2.6,-0.41 5.3,-0.33 7.84,0.41 2.12,0.83 3.46,2.8 5.13,4.26 -0.56,-2.13 -1.28,-4.21 -2.01,-6.28 -5.68,0 -11.35,-0.01 -17.02,0.01 1.01,1 2.63,1.65 2.82,3.25 1.49,5.47 3.23,10.88 4.41,16.43 C 1.91,-1.36 0.94,-0.7 0,0" /></g><g
           transform="translate(191.1899,293.8599)"
           id="g108"><path
             id="path110"
             style="fill:#000000;fill-opacity:1;fill-rule:nonzero;stroke:none"
             d="M 0,0 C -1.16,-2.58 -1.7,-5.38 -2.43,-8.1 0.54,-8.2 4.71,-7.63 5.04,-3.91 5.88,-1.04 2.41,1.4 0,0 M -6.83,1.53 C -2.92,1.6 1.07,1.99 4.94,1.22 7.68,0.82 9.62,-2.18 8.55,-4.82 7.94,-7.67 4.77,-8.39 2.49,-9.4 c 1.67,-3.67 2.15,-8.13 5.49,-10.78 -1.66,0.08 -3.35,-0.04 -4.97,0.3 -1.92,3.75 -2.46,8.2 -5.3,11.44 -1.3,-3.21 -2.1,-6.58 -2.92,-9.93 0.69,-0.41 2.08,-1.22 2.77,-1.63 -2.99,-0.14 -5.99,-0.12 -8.97,-0.08 1.05,0.99 2.69,1.68 2.97,3.27 1.6,5.52 3.16,11.05 4.51,16.63 -0.97,0.56 -1.94,1.13 -2.9,1.71" /></g><g
           transform="translate(207.7402,295.2798)"
           id="g112"><path
             id="path114"
             style="fill:#000000;fill-opacity:1;fill-rule:nonzero;stroke:none"
             d="M 0,0 C 3.1,1.72 6.63,-1.17 9.72,0.72 9.17,-1.79 8.67,-4.32 8.03,-6.81 7.22,-4.91 7.42,-2.15 5.28,-1.12 3.58,-0.14 1.46,-1 0.4,-2.52 c -1.06,-3.57 2.68,-5.66 4.53,-8.1 2.91,-2.55 2.95,-7.73 -0.21,-10.1 -2.7,-2.41 -6.58,-1.06 -9.67,-0.3 -0.44,-0.34 -1.32,-1.01 -1.77,-1.35 0.47,2.84 0.86,5.69 1.22,8.54 1.02,-2.28 1.25,-5.49 3.87,-6.59 3.2,-1.61 6.95,2.49 5.3,5.6 -1.65,2.6 -4.18,4.51 -5.9,7.06 C -3.8,-5.16 -2.83,-1.31 0,0" /></g><g
           transform="translate(221.0298,295.3799)"
           id="g116"><path
             id="path118"
             style="fill:#000000;fill-opacity:1;fill-rule:nonzero;stroke:none"
             d="M 0,0 C 3.01,0.12 6.02,0.12 9.04,0.15 7.82,-0.88 6.12,-1.64 5.9,-3.41 4.43,-8.88 2.73,-14.31 1.57,-19.86 c 0.81,-0.59 1.62,-1.18 2.44,-1.76 -2.75,0.01 -5.51,0 -8.26,0.02 1.06,1.06 2.36,2.06 2.63,3.65 1.5,5.31 3.02,10.63 4.33,15.99 C 2.03,-1.47 0.68,-0.49 0,0" /></g><g
           transform="translate(231.2202,295.4902)"
           id="g120"><path
             id="path122"
             style="fill:#000000;fill-opacity:1;fill-rule:nonzero;stroke:none"
             d="m 0,0 c 9.14,-0.05 18.28,0.15 27.41,-0.16 -0.83,-0.34 -2.491,-1.03 -3.321,-1.37 0.761,-2.77 1.651,-5.51 2.591,-8.23 2.04,2.67 4.07,5.36 5.82,8.23 -0.951,0.46 -1.9,0.93 -2.84,1.41 2.66,0.14 5.33,0.14 8,0.18 0.02,-0.17 0.06,-0.52 0.08,-0.69 -3.83,-0.66 -5.35,-4.6 -7.62,-7.25 -3.05,-3.47 -4.491,-8 -5.14,-12.49 1.31,-0.44 2.63,-0.85 3.97,-1.21 -3.861,-0.26 -7.72,-0.17 -11.58,-0.09 4.67,1.07 4.88,6.34 5.91,10.13 -1.6,3.81 -1.16,9.51 -5.63,11.25 -0.6,-2.11 -1.2,-4.22 -1.88,-6.3 -0.22,1.37 -0.51,2.73 -0.87,4.07 -1.03,1.22 -2.94,0.83 -4.33,1.27 -1.7,-6.41 -3.74,-12.74 -5.09,-19.24 0.92,-0.26 2.77,-0.78 3.69,-1.04 -3.57,-0.32 -7.16,-0.24 -10.74,-0.11 1.16,0.89 3.25,0.93 3.67,2.6 1.73,5.87 3.23,11.82 4.85,17.73 C 3.18,-0.88 0.48,-3.19 -1.5,-6.09 -1.08,-4.04 -0.54,-2.02 0,0" /></g><g
           transform="translate(73.3599,194.71)"
           id="g124"><path
             id="path126"
             style="fill:#b1c4e5;fill-opacity:1;fill-rule:nonzero;stroke:none"
             d="m 0,0 c -10.41,-10.92 -13.01,-27.229 -10.47,-41.66 1.33,-8.23 5.73,-15.71 11.64,-21.5 12.73,-13.27 30.95,-18.71 45.53,-29.39 12.83,-10.06 10.3,-33.88 -4.91,-40.33 -10.89,-4.24 -24.06,-1.21 -32.22,7.1 -9.85,9.87 -14.38,23.65 -16.87,37.06 -1.85,0.01 -3.7,0.02 -5.55,0.02 -0.06,-17.88 0.08,-35.75 -0.07,-53.63 1.78,-0.07 3.56,-0.13 5.34,-0.19 1.26,2.74 1.6,7.14 5.15,7.83 6.32,-0.72 11.93,-4.15 18.07,-5.64 11.46,-3.03 23.97,-2.79 35.1,1.41 13.61,5.191 23.56,18.12 26.17,32.32 2.94,15.18 -1.03,31.96 -11.91,43.21 -4.62,5.05 -10.98,7.82 -16.76,11.23 -8.25,4.79 -16.63,9.36 -24.8,14.29 -4.73,3.11 -9.93,6.5 -12.03,12.04 -2.02,5.38 -2.28,11.46 -0.69,16.98 2.08,7.04 8.86,11.92 15.94,12.94 8.1,1.02 16.47,-1.92 22.44,-7.43 9.36,-8.32 14.71,-20.19 17.59,-32.18 1.84,0.06 3.68,0.13 5.52,0.2 -0.17,15.62 -0.01,31.25 -0.08,46.87 -1.9,-0.01 -3.8,-0.02 -5.7,-0.04 C 65.63,9.4 65.15,7.06 63.71,5.26 61.36,3.16 58.16,4.6 55.58,5.41 48.78,7.9 41.97,10.76 34.67,11.26 22.31,12.25 8.74,9.34 0,0 m 0.62,50.25 c 40.44,0.07 80.88,0.06 121.32,0 -3.17,-13.35 -6.83,-26.59 -9.99,-39.94 -0.11,-0.6 -0.32,-1.81 -0.43,-2.41 -3.29,-11.1 -5.88,-22.39 -8.81,-33.59 -12.75,-50.65 -25.86,-101.21 -38.46,-151.9 -40.48,-0.23 -80.97,-0.12 -121.45,-0.05 19.19,75.98 38.61,151.911 57.82,227.89" /></g><g
           transform="translate(220.9102,244.96)"
           id="g128"><path
             id="path130"
             style="fill:#b1c4e5;fill-opacity:1;fill-rule:nonzero;stroke:none"
             d="m 0,0 c 40.43,0.08 80.87,0.03 121.3,0.03 -3.441,-13.33 -6.33,-26.84 -10.38,-39.99 -0.61,-0.03 -1.82,-0.09 -2.43,-0.13 0.119,-1.78 0.26,-3.56 0.369,-5.35 0.111,-1.64 0.08,-3.3 -0.269,-4.92 -14.22,-55.88 -28.42,-111.76 -42.58,-167.66 -0.91,-3.25 -1.34,-6.69 -2.87,-9.74 -3.34,-0.4 -6.701,-0.21 -10.04,-0.21 -37,0.07 -73.99,-0.08 -110.98,0.06 13.85,54.67 27.75,109.33 41.63,164 1.17,4.15 2.23,8.33 2.83,12.6 6.11,3.3 13.15,3.92 19.95,4.29 0.14,-38.64 0.02,-77.28 0.06,-115.92 -0.34,-5.53 -0.06,-12.07 -4.21,-16.33 -4.26,-3.11 -9.89,-2.65 -14.88,-3.11 0.07,-1.95 0.13,-3.91 0.2,-5.87 23.05,0.12 46.1,-0.02 69.15,0.07 -0.01,1.951 -0.01,3.89 -0.01,5.83 -4.99,0.47 -10.74,-0.05 -14.85,3.33 -3.81,4.35 -3.69,10.61 -3.91,16.05 0.06,38.64 -0.07,77.28 0.069,115.93 8.54,-0.36 17.841,-1.46 24.401,-7.54 8.21,-7.46 10.97,-18.8 12.38,-29.39 1.81,0.01 3.62,0.01 5.44,0.01 0.09,14.67 -0.23,29.33 -0.28,44 -30.05,0 -60.1,-0.01 -90.15,0 C -6.92,-26.58 -3.31,-13.33 0,0" /></g><g
           transform="translate(369.3398,244.73)"
           id="g132"><path
             id="path134"
             style="fill:#b1c4e5;fill-opacity:1;fill-rule:nonzero;stroke:none"
             d="m 0,0 c 40.49,-0.03 80.98,0.05 121.46,-0.03 -19.49,-75.95 -38.62,-152 -57.98,-227.98 -40.419,-0.37 -80.86,-0.13 -121.29,-0.12 8.79,35.64 18.01,71.17 27,106.76 2.22,8.05 3.621,16.36 6.661,24.16 0.139,-13.84 0.009,-27.68 0.069,-41.52 0.26,-9.84 0.8,-20.2 5.75,-28.96 5.73,-9.49 14.79,-17.08 25.431,-20.41 13.799,-4.38 29.25,-4.47 42.719,1.17 9.02,3.52 17.23,10.09 21.08,19.17 4.491,10.38 6.06,21.83 6.26,33.07 -0.019,22.33 0.03,44.66 -0.03,66.99 0.08,5.45 -0.26,11.29 2.33,16.28 2.61,4.46 8.19,5.21 12.73,6.49 -0.03,1.74 -0.049,3.47 -0.06,5.2 H 49.62 c 0.03,-1.77 0.07,-3.55 0.11,-5.33 4.72,-0.39 9.97,-0.57 13.73,-3.86 4.26,-3.56 4.681,-9.58 4.94,-14.74 0.03,-24.34 0,-48.68 0.01,-73.01 -0.28,-10.49 -1.45,-21.57 -7.28,-30.58 -4,-6.31 -10.739,-10.59 -18.02,-12.04 -7.65,-1.54 -16.18,-1.35 -22.969,2.91 -5.271,3.31 -8.531,9 -10.29,14.84 -2.801,9.31 -3.021,19.14 -2.951,28.79 0.02,22.67 0,45.35 0,68.02 0.201,5.46 0.26,11.53 3.72,16.07 3.91,3.68 9.771,3.12 14.74,3.56 0.031,1.78 0.06,3.56 0.1,5.34 -11.859,0.07 -23.72,0.01 -35.58,0.03 C -6.72,-26.5 -3.33,-13.26 0,0" /></g><g
           transform="translate(73.3599,194.71)"
           id="g136"><path
             id="path138"
             style="fill:#084e8e;fill-opacity:1;fill-rule:nonzero;stroke:none"
             d="m 0,0 c 8.74,9.34 22.31,12.25 34.67,11.26 7.3,-0.5 14.11,-3.36 20.91,-5.85 2.58,-0.81 5.78,-2.25 8.13,-0.15 1.44,1.8 1.92,4.14 2.72,6.25 1.9,0.02 3.8,0.03 5.7,0.04 0.07,-15.62 -0.09,-31.25 0.08,-46.87 -1.84,-0.07 -3.68,-0.14 -5.52,-0.2 C 63.81,-23.53 58.46,-11.66 49.1,-3.34 43.13,2.17 34.76,5.11 26.66,4.09 19.58,3.07 12.8,-1.81 10.72,-8.85 c -1.59,-5.52 -1.33,-11.6 0.69,-16.98 2.1,-5.54 7.3,-8.93 12.03,-12.04 8.17,-4.93 16.55,-9.5 24.8,-14.29 5.78,-3.41 12.14,-6.18 16.76,-11.23 10.88,-11.25 14.85,-28.03 11.91,-43.21 -2.61,-14.2 -12.56,-27.129 -26.17,-32.32 -11.13,-4.2 -23.64,-4.44 -35.1,-1.41 -6.14,1.49 -11.75,4.92 -18.07,5.64 -3.55,-0.69 -3.89,-5.09 -5.15,-7.83 -1.78,0.06 -3.56,0.12 -5.34,0.19 0.15,17.88 0.01,35.75 0.07,53.63 1.85,0 3.7,-0.01 5.55,-0.02 2.49,-13.41 7.02,-27.19 16.87,-37.06 8.16,-8.31 21.33,-11.34 32.22,-7.1 15.21,6.45 17.74,30.27 4.91,40.33 -14.58,10.68 -32.8,16.12 -45.53,29.39 -5.91,5.79 -10.31,13.27 -11.64,21.5 C -13.01,-27.229 -10.41,-10.92 0,0" /></g><g
           transform="translate(329.4004,204.8701)"
           id="g140"><path
             id="path142"
             style="fill:#084e8e;fill-opacity:1;fill-rule:nonzero;stroke:none"
             d="m 0,0 c 0.609,0.04 1.819,0.1 2.43,0.13 9.13,0.03 18.259,-0.02 27.389,0 C 41.68,0.11 53.54,0.17 65.399,0.1 65.359,-1.68 65.33,-3.46 65.3,-5.24 60.33,-5.68 54.47,-5.12 50.56,-8.8 c -3.46,-4.54 -3.52,-10.61 -3.72,-16.07 0,-22.67 0.019,-45.35 0,-68.02 -0.07,-9.65 0.149,-19.48 2.95,-28.79 1.76,-5.841 5.02,-11.53 10.29,-14.841 6.789,-4.259 15.319,-4.449 22.97,-2.909 7.28,1.45 14.019,5.73 18.019,12.04 5.83,9.01 7,20.09 7.281,30.579 -0.01,24.331 0.019,48.671 -0.01,73.011 -0.26,5.16 -0.681,11.18 -4.941,14.74 -3.759,3.29 -9.009,3.47 -13.729,3.86 -0.04,1.78 -0.08,3.56 -0.11,5.33 h 42.509 c 0.011,-1.73 0.031,-3.46 0.061,-5.2 -4.54,-1.28 -10.12,-2.03 -12.731,-6.49 -2.589,-4.99 -2.25,-10.83 -2.33,-16.28 0.061,-22.33 0.011,-44.66 0.031,-66.99 -0.201,-11.24 -1.77,-22.691 -6.26,-33.07 -3.851,-9.08 -12.061,-15.65 -21.08,-19.17 -13.47,-5.64 -28.92,-5.55 -42.72,-1.17 -10.641,3.33 -19.7,10.92 -25.431,20.41 -4.95,8.76 -5.49,19.12 -5.75,28.96 -0.059,13.84 0.071,27.68 -0.069,41.519 0.109,11.491 0.06,22.981 0.05,34.461 -0.28,4.869 -0.49,10.48 -4.07,14.2 C 8.51,-6.24 4.25,-5.98 0.369,-5.35 0.26,-3.56 0.119,-1.78 0,0" /></g><g
           transform="translate(185.3101,205.02)"
           id="g144"><path
             id="path146"
             style="fill:#ec5233;fill-opacity:1;fill-rule:nonzero;stroke:none"
             d="m 0,0 c 8.51,-0.04 17.02,-0.01 25.54,-0.02 30.05,-0.01 60.1,0 90.15,0 0.05,-14.67 0.37,-29.33 0.28,-44 -1.82,0 -3.63,0 -5.44,-0.01 -1.41,10.59 -4.17,21.93 -12.38,29.39 -6.56,6.08 -15.86,7.18 -24.4,7.54 -0.14,-38.65 -0.01,-77.29 -0.07,-115.93 0.22,-5.44 0.1,-11.7 3.91,-16.05 4.11,-3.38 9.86,-2.86 14.85,-3.33 0,-1.94 0,-3.88 0.01,-5.83 -23.05,-0.09 -46.1,0.05 -69.15,-0.07 -0.07,1.96 -0.13,3.92 -0.2,5.87 4.99,0.46 10.62,0 14.88,3.11 4.15,4.26 3.87,10.8 4.21,16.33 -0.04,38.64 0.08,77.28 -0.06,115.92 -6.8,-0.37 -13.84,-0.99 -19.95,-4.29 -11.7,-6.34 -15.76,-20.34 -17.24,-32.68 -1.84,0.02 -3.67,0.03 -5.5,0.05 -0.23,13.86 0.55,27.72 0.13,41.59 0.11,0.6 0.32,1.81 0.43,2.41" /></g></g></g></g></svg>